<svg width="1140" height="441" viewBox="0 0 1140 441" fill="none" xmlns="http://www.w3.org/2000/svg">
<g opacity="0.94">
<path d="M120.41 294.74C124.63 287.23 134.34 272.03 132.12 253.18C131.25 245.84 132.6 242.74 126.02 228.14C107.32 186.66 145.31 178.33 154.78 175.28C161.16 173.23 177.32 171.05 183.18 170.31C184.43 170.15 185.36 169.11 185.38 167.85C185.61 154.66 186.86 84.56 187.78 30.72C187.78 30.21 187.27 29.85 186.8 30.05C180.86 32.59 175.31 36.8 170.68 42.74C145.9 74.51 118.87 114.82 93.9 164.52C62.64 226.73 43.56 285.79 31.67 334.17C25.65 358.66 36.4 384.55 56.41 393.68C69.49 399.65 84.63 405.63 101.59 410.8C103.34 411.33 104.86 409.53 104.07 407.88C89 376.36 105.64 321.03 120.41 294.73V294.74Z" fill="#0F202A"/>
<path d="M283.16 294.74C278.94 287.23 269.23 272.03 271.45 253.18C272.32 245.84 270.97 242.74 277.55 228.14C296.25 186.66 258.26 178.33 248.79 175.28C242.41 173.23 226.25 171.05 220.39 170.31C219.14 170.15 218.21 169.11 218.19 167.85C217.96 154.66 216.71 84.56 215.79 30.72C215.79 30.21 216.3 29.85 216.77 30.05C222.71 32.59 228.26 36.8 232.89 42.74C257.67 74.51 284.7 114.82 309.67 164.52C340.93 226.73 360.01 285.79 371.9 334.17C377.92 358.66 367.17 384.55 347.16 393.68C334.08 399.65 318.94 405.63 301.98 410.8C300.23 411.33 298.71 409.53 299.5 407.88C314.57 376.36 297.93 321.03 283.16 294.73V294.74Z" fill="#0F202A"/>
</g>
<g opacity="0.94">
<path d="M624.03 174.95V117.96C624.03 101.23 632.41 92.18 648.09 92.18C663.77 92.18 672.3 101.22 672.3 117.96V126.25H663.14V117.35C663.14 106.04 657.86 100.62 648.24 100.62C638.62 100.62 633.65 106.05 633.65 117.35V175.54C633.65 187 638.93 192.12 648.24 192.12C657.55 192.12 663.14 187 663.14 175.54V150.51H649.48V141.92H672.29V174.94C672.29 191.67 663.91 200.72 648.08 200.72C632.25 200.72 624.02 191.67 624.02 174.94L624.03 174.95Z" fill="#0F202A"/>
<path d="M685.79 174.95V93.69H695.41V175.55C695.41 186.86 700.69 192.13 710 192.13C719.31 192.13 724.59 186.85 724.59 175.55V93.69H733.9V174.95C733.9 191.53 725.52 200.73 709.84 200.73C694.16 200.73 685.78 191.53 685.78 174.95H685.79Z" fill="#0F202A"/>
<path d="M749.11 93.69H758.73V199.22H749.11V93.69Z" fill="#0F202A"/>
<path d="M789.46 102.13H769.59V93.69H819.1V102.13H799.08V199.22H789.46V102.13Z" fill="#0F202A"/>
<path d="M857.59 175.85H829.81L825.31 199.22H816.15L837.41 93.69H850.45L872.02 199.22H862.24L857.58 175.85H857.59ZM856.04 167.56L843.62 105.15L831.51 167.56H856.03H856.04Z" fill="#0F202A"/>
<path d="M883.04 93.69H906.16C923.08 93.69 930.22 101.08 930.22 117.66V124.14C930.22 135.9 926.03 142.98 917.03 145.4V145.7C926.5 147.81 930.22 154.9 930.22 167.41V186.56C930.22 191.08 930.53 195.6 931.77 199.22H921.99C921.21 196.21 920.59 192.89 920.59 186.41V166.96C920.59 154.75 915.93 150.53 904.45 150.53H892.66V199.22H883.04V93.69ZM904.31 141.78C915.33 141.78 920.61 137.26 920.61 125.8V118.41C920.61 106.95 916.42 102.13 905.87 102.13H892.68V141.78H904.32H904.31Z" fill="#0F202A"/>
<path d="M944.97 93.69H988.43V102.13H954.6V139.97H982.38V148.41H954.6V190.62H988.43V199.21H944.97V93.68V93.69Z" fill="#0F202A"/>
</g>
<g opacity="0.94">
<path d="M623.44 242.22H663.44V250.68H632.6V289.96H657.69V298.42H632.6V347.97H623.45V242.22H623.44Z" fill="#0F202A"/>
<path d="M672.58 323.65V266.54C672.58 249.77 680.84 240.71 695.75 240.71C710.66 240.71 718.92 249.77 718.92 266.54V323.65C718.92 340.42 710.66 349.48 695.75 349.48C680.84 349.48 672.58 340.42 672.58 323.65ZM709.77 324.25V265.93C709.77 254.6 704.75 249.16 695.75 249.16C686.75 249.16 681.73 254.6 681.73 265.93V324.25C681.73 335.58 686.75 340.87 695.75 340.87C704.75 340.87 709.77 335.58 709.77 324.25Z" fill="#0F202A"/>
<path d="M732.79 242.22H754.78C770.87 242.22 777.66 249.62 777.66 266.24V272.74C777.66 284.52 773.68 291.62 765.12 294.04V294.34C774.12 296.46 777.66 303.56 777.66 316.1V335.29C777.66 339.82 777.96 344.35 779.14 347.98H769.84C769.1 344.96 768.51 341.63 768.51 335.14V315.65C768.51 303.41 764.08 299.18 753.16 299.18H741.94V347.98H732.79V242.23V242.22ZM753.01 290.41C763.49 290.41 768.51 285.88 768.51 274.4V267C768.51 255.52 764.52 250.68 754.49 250.68H741.95V290.41H753.02H753.01Z" fill="#0F202A"/>
<path d="M791.68 242.22H805.41L822.68 330.6L839.95 242.22H853.68V347.97H844.68V255.81L826.38 347.97H818.41L799.96 255.81V347.97H791.7V242.22H791.68Z" fill="#0F202A"/>
<path d="M903.54 324.56H877.12L872.84 347.98H864.13L884.35 242.23H896.75L917.26 347.98H907.96L903.53 324.56H903.54ZM902.07 316.25L890.26 253.7L878.75 316.25H902.07Z" fill="#0F202A"/>
<path d="M933.35 250.68H914.46V242.22H961.54V250.68H942.5V347.97H933.35V250.68Z" fill="#0F202A"/>
<path d="M971.87 242.22H981.02V347.97H971.87V242.22Z" fill="#0F202A"/>
<path d="M994.89 323.65V266.54C994.89 249.77 1003.15 240.71 1018.06 240.71C1032.97 240.71 1041.23 249.77 1041.23 266.54V323.65C1041.23 340.42 1032.97 349.48 1018.06 349.48C1003.15 349.48 994.89 340.42 994.89 323.65ZM1032.08 324.25V265.93C1032.08 254.6 1027.06 249.16 1018.06 249.16C1009.06 249.16 1004.04 254.6 1004.04 265.93V324.25C1004.04 335.58 1009.06 340.87 1018.06 340.87C1027.06 340.87 1032.08 335.58 1032.08 324.25Z" fill="#0F202A"/>
<path d="M1055.1 242.22H1067.2L1094.06 323.95V242.22H1102.62V347.97H1092.88L1063.51 257.78V347.97H1055.1V242.22Z" fill="#0F202A"/>
</g>
<g opacity="0.94">
<path d="M519.09 335.24L472.74 72.33L446.89 240.99C443.51 262.93 437.67 301.37 434.24 323.44L429.16 356.59C428.23 362.68 432.94 368.16 439.09 368.16H451.88C438.76 366.92 433.18 345.53 438.13 312.2L448.53 243.66H482.76C486.1 264.1 493.27 307.17 496.26 327.11L500.74 355.88C501.85 362.94 507.93 368.15 515.07 368.15H538.71C529.6 368.15 522.96 357.03 519.1 335.22L519.09 335.24ZM460.61 241.09C454.46 241.09 449.75 235.62 450.67 229.54L456.66 190C466.71 108.11 477.02 218.45 482.32 241.09H460.6H460.61Z" fill="#0F202A"/>
</g>
<g opacity="0.94">
<path d="M579.42 72.33H566.63C579.75 73.57 585.33 94.96 580.38 128.29L570.88 190.85L569.98 196.83H569.97C553.23 316.41 553.32 301.22 535.19 193.41L527.07 143.94L523.89 123.91L523.76 123.1L522.43 114.72C522.37 114.27 522.3 113.82 522.25 113.38L517.77 84.61C517.6 83.5 517.31 82.45 516.9 81.44C516.75 81.04 516.57 80.66 516.37 80.27C516.18 79.9 515.97 79.52 515.74 79.16C513.15 75.02 508.57 72.33 503.44 72.33H479.8C488.91 72.33 495.55 83.45 499.41 105.26L545.76 368.17L562.83 256.77C566 236.12 573.38 187.94 576.46 167.87L583.15 124.19C583.28 123.34 583.39 122.5 583.52 121.69C583.57 121.36 583.62 121.02 583.67 120.69C583.84 119.56 584.02 118.45 584.2 117.36L584.25 117.06L589.33 83.9C590.26 77.81 585.55 72.33 579.4 72.33H579.42Z" fill="#0F202A"/>
</g>
</svg>
